<?xml version="1.0" encoding="utf-8"?>
<!-- Generator: Adobe Illustrator 23.0.1, SVG Export Plug-In . SVG Version: 6.00 Build 0)  -->
<svg version="1.1" id="Layer_1" xmlns="http://www.w3.org/2000/svg" xmlns:xlink="http://www.w3.org/1999/xlink" x="0px" y="0px"
	 viewBox="0 0 32 32" style="enable-background:new 0 0 32 32;" xml:space="preserve">
<style type="text/css">
	.st0{fill:#FFFFFF;}
</style>
<g>
	<path class="st0" d="M9.5,28l11.1-17.8c0,0,1.8,2.2-0.9,6.2c3,0.4,5.9,1.3,5.3,4.2c-0.7,2.9-6.8,3.2-6.8,3.2s4.4-1.5,4.2-3.3
		c-0.2-2.8-4.1-1.5-4.9-0.6C16.9,20.8,9.5,28,9.5,28z"/>
	<path class="st0" d="M21.1,15.4c0,0,2.7-4.8-1.1-7.4c-4.5-3-14.8,7.2-14.8,7.2S15.8-3,23.9,8.6c5.4,7.7,7.4,2.6,7.4,2.6
		s-0.5,3.3-2.2,3.9c-1.7,0.6-4.8-2.4-4.8-2.4L21.1,15.4z"/>
	<circle class="st0" cx="25.9" cy="6.4" r="2.3"/>
	<path class="st0" d="M6.1,8.7C5.9,8.6-0.8,17.3,1,20c2.2,3.3,8.5-2.5,9.7-3.6c0.7-0.6-4.7,4.3-7.6,2.6C0.5,17.6,6.4,8.8,6.1,8.7z"
		/>
	<path class="st0" d="M7.2,16.6c-0.1-0.3,4.3-5.5,7.4-4.7c4.3,1.3-4.6,11.9-7.4,13.6C6.9,25.6,15.5,16,13.5,14
		C11.4,12,7.3,16.8,7.2,16.6z"/>
</g>
</svg>
